<svg xmlns="http://www.w3.org/2000/svg" viewBox="0 0 1024 1024">
  <defs>
    <linearGradient id="bg" x1="0" x2="1" y1="0" y2="1">
      <stop offset="0%" stop-color="#22d3ee"/>
      <stop offset="48%" stop-color="#7c3aed"/>
      <stop offset="100%" stop-color="#050816"/>
    </linearGradient>
    <radialGradient id="glow" cx="50%" cy="42%" r="48%">
      <stop offset="0%" stop-color="#ffffff" stop-opacity="0.42"/>
      <stop offset="100%" stop-color="#ffffff" stop-opacity="0"/>
    </radialGradient>
  </defs>
  <rect width="1024" height="1024" rx="224" fill="url(#bg)"/>
  <rect width="1024" height="1024" rx="224" fill="url(#glow)"/>
  <path d="M512 192c170 0 282 123 282 305 0 198-125 335-282 335S230 695 230 497c0-182 112-305 282-305Z" fill="#060817" opacity="0.74"/>
  <path d="M512 202c164 0 266 116 266 294 0 187-116 318-266 318S246 683 246 496c0-178 102-294 266-294Z" fill="none" stroke="#ffffff" stroke-opacity="0.72" stroke-width="28"/>
  <path d="M343 440c51-36 121-36 169 0-48 43-118 43-169 0Z" fill="#22d3ee"/>
  <path d="M512 440c48-36 118-36 169 0-51 43-121 43-169 0Z" fill="#a78bfa"/>
  <path d="M390 628c73 57 171 57 244 0" fill="none" stroke="#ffffff" stroke-opacity="0.78" stroke-width="34" stroke-linecap="round"/>
  <path d="M512 121v104M512 799v104M121 512h104M799 512h104" stroke="#ffffff" stroke-opacity="0.32" stroke-width="32" stroke-linecap="round"/>
</svg>
